<svg width="150" height="22" viewBox="0 0 150 22" fill="none" xmlns="http://www.w3.org/2000/svg">
<g clip-path="url(#clip0_2213_152)">
<path d="M131.949 2.79661C131.949 1.32203 132.407 0.813559 133.169 0.813559C133.932 0.813559 134.542 1.11864 135.254 2.79661L139.576 12.6102V18.8136C139.576 20.2881 138.966 20.6949 137.288 20.8983V21.3051H145.271V20.8983C143.542 20.6949 142.983 20.2373 142.983 18.8136V12.6102L147.153 3.15254C147.966 1.32203 148.78 0.915254 150 0.711864V0.305085H144.153V0.711864C146.136 0.915254 146.847 1.47458 146.288 2.79661L142.627 11.1864L138.864 2.59322C138.356 1.42373 138.661 1.0678 140.847 0.762712V0.355932H128.288V0.762712C130.271 1.0678 130.881 1.42373 130.881 2.84746V14.339L121.678 0.355932H117.153V0.762712C118.627 0.966102 119.085 1.42373 119.085 2.84746V18.8644C119.085 20.339 118.678 20.8475 118.169 20.8475C117.712 20.8475 117.458 20.6441 116.797 18.8644L109.983 0.254237H109.576L103.017 18.0508C102.305 20.0339 101.186 20.6949 100.068 20.9492V21.3559H106.068V20.9492C103.983 20.7458 103.322 19.9322 103.78 18.6102L105.254 14.5424H111.458L112.881 18.3559C113.492 20.0847 113.136 20.5932 111.356 20.8983V21.3051H122.746V20.8983C120.763 20.5932 120.153 20.2373 120.153 18.8136V4.47458L131.288 21.3559H131.949V2.79661ZM51.661 10.7797C51.661 4.27119 54.7627 0.864407 58.3729 0.864407C60.5085 0.864407 61.8814 1.32203 62.6949 2.18644C63.3051 2.79661 63.7627 3.66102 64.2712 5.0339H64.678V0.661017C62.5932 0.254237 60.7119 0 58.8305 0C53.3898 0 47.7458 3.50847 47.7458 10.7797C47.7458 18.0508 53.3898 21.5593 58.4746 21.5593C60.7119 21.5593 62.6949 21.2034 64.5763 20.6441L65.1864 16.5254L64.8305 16.4237C64.3729 17.2881 63.8136 18.0508 63.2034 18.7119C61.8814 20.0339 60.1017 20.7458 58.322 20.7458C54.8644 20.6949 51.661 17.3898 51.661 10.7797ZM96.7627 11.3898C96.3051 11.3898 95.6949 11.339 95.0847 11.2373V1.0678H96.7627C99.5593 1.0678 100.78 2.54237 100.78 6.20339C100.78 9.91525 99.5085 11.3898 96.7627 11.3898ZM31.4237 0.305085V5.33898H31.8305C32.4407 2.13559 33.7119 1.11864 35.8475 1.11864H36.8644V18.8136C36.8644 20.2881 36.2542 20.6949 34.5763 20.8983V21.3051H42.5593V20.8983C40.8305 20.6949 40.2712 20.2373 40.2712 18.8136V1.0678H41.2881C43.4237 1.0678 44.6949 2.08475 45.3051 5.28814H45.7119V0.254237H31.4237V0.305085ZM25.0678 21.5593C28.5254 21.5593 32.1864 19.5763 32.1864 15.5085C32.1864 13.1186 30.9153 11.1356 28.678 9.91525L24.7119 7.72881C22.6271 6.55932 22.0169 5.49153 22.0169 3.9661C22.0169 2.23729 23.2881 0.864407 25.678 0.864407C26.8475 0.864407 27.7119 1.16949 28.4237 1.83051C29.0339 2.44068 29.6441 3.45763 30.2034 5.28814H30.5593V0.661017C29.1356 0.254237 27.661 0 25.9322 0C22.5254 0 19.9831 2.13559 19.9831 5.74576C19.9831 8.0339 21.2542 10.1186 23.339 11.339L27 13.3729C29.0847 14.5424 29.7458 15.661 29.7458 17.339C29.7458 19.322 27.7119 20.7458 25.4746 20.7458C24 20.7458 22.7797 20.2373 21.9153 19.3729C21.3559 18.8136 20.7458 17.9492 20.339 16.8305H22.7288V16.4237C22.0678 16.2712 21.661 16.1695 21.1017 14.8475L16.4237 3.71186H16.0169L11.4407 14.5932C10.8305 16.0678 10.4237 16.322 9.71186 16.4237V16.8305H13.7797V16.4237C12.3051 16.2712 11.8983 15.5593 12.2542 14.6441L12.9661 12.9153H17.0847L18 15.0508C18.4068 16.0169 17.7966 16.2712 16.322 16.3729V16.7797H19.5763V20.7966C21.2034 21.2542 23.2881 21.5593 25.0678 21.5593ZM76.7288 21.3559L82.7797 4.52542L83.2373 18.8644C83.2881 20.2881 82.7288 20.6949 81 20.8983V21.3051H97.678V20.8983C95.6949 20.5932 95.0847 20.2373 95.0847 18.8136V12.0508C95.7458 12.1525 96.4068 12.2034 96.9153 12.2034C100.932 12.2034 104.39 10.7288 104.39 6.25424C104.39 1.77966 100.932 0.305085 96.9153 0.305085H89.7458V0.711864C91.2203 0.915254 91.678 1.37288 91.678 2.79661V18.8136C91.678 20.2881 91.0678 20.8983 89.3898 20.8983H89.339C87.5593 20.8983 86.7966 20.2373 86.7458 18.8644L86.1356 2.84746C86.0847 1.37288 86.5932 0.915254 88.1695 0.711864V0.305085H83.2373L77.8475 15.4068L72.4576 0.305085H67.1695V0.711864C68.7458 0.915254 69.2542 1.42373 69.2034 2.84746L68.6441 18.2034C68.5932 19.7288 67.7797 20.6441 66.3051 20.8983V21.3051H71.8983V20.8983C70.4746 20.6949 69.661 19.7797 69.7119 18.2034L70.1695 4.22034L76.322 21.3051L76.7288 21.3559ZM60.5085 16.9322C63.2034 16.9322 66.661 14.5424 66.661 10.7797C66.661 7.0678 63.2542 4.62712 60.5085 4.62712C57.8136 4.62712 54.3559 7.01695 54.3559 10.7797C54.3559 14.4915 57.7627 16.9322 60.5085 16.9322ZM60.5085 5.49153C62.2373 5.49153 63.4068 6.91525 63.4068 10.7797C63.4068 14.6949 62.1864 16.0678 60.5085 16.0678C58.7797 16.0678 57.6102 14.6441 57.6102 10.7797C57.6102 6.86441 58.7797 5.49153 60.5085 5.49153ZM111.203 13.678H105.559L108.356 5.94915L111.203 13.678ZM16.8305 12.1017H13.3729L15.1017 7.88136L16.8305 12.1017ZM10.2203 13.1695H10.6271V6.86441H10.2203C9.55932 9.1017 8.89831 9.61017 7.67797 9.61017H5.33898V1.0678H9.05085C11.1864 1.0678 12.4576 2.08475 13.0678 5.28814H13.4746V0.254237H0V0.661017C1.47458 0.864407 1.9322 1.32203 1.9322 2.74576V18.7627C1.9322 20.2373 1.47458 20.6441 0 20.8475V21.2542H7.9322V20.8475C5.94915 20.5424 5.33898 20.1864 5.33898 18.7627V10.3729H7.67797C8.84746 10.4237 9.55932 10.9322 10.2203 13.1695Z" fill="#838383"/>
</g>
<defs>
<clipPath id="clip0_2213_152">
<rect width="150" height="21.3559" fill="white"/>
</clipPath>
</defs>
</svg>
