<svg width="24" height="24" viewBox="0 0 24 24" fill="none" xmlns="http://www.w3.org/2000/svg">
<path d="M7.5 18V12.5M7.5 12.5V5.5H12C12.4596 5.5 12.9148 5.59053 13.3394 5.76642C13.764 5.94231 14.1499 6.20012 14.4749 6.52513C14.7999 6.85013 15.0577 7.23597 15.2336 7.66061C15.4095 8.08525 15.5 8.54037 15.5 9C15.5 9.45963 15.4095 9.91475 15.2336 10.3394C15.0577 10.764 14.7999 11.1499 14.4749 11.4749C14.1499 11.7999 13.764 12.0577 13.3394 12.2336C12.9148 12.4095 12.4596 12.5 12 12.5H7.5ZM7.5 12.5H12.5C13.2956 12.5 14.0587 12.8161 14.6213 13.3787C15.1839 13.9413 15.5 14.7044 15.5 15.5V18" stroke="#C0C0C0"/>
</svg>
