<svg width="40" height="40" viewBox="0 0 40 40" fill="none" xmlns="http://www.w3.org/2000/svg">
<rect width="40" height="40" rx="20" fill="#FFCB66" fill-opacity="0.2"/>
<path d="M15 13H25C25.9711 13 26.599 13.0023 27.0615 13.0645C27.4951 13.1228 27.6309 13.2169 27.707 13.293C27.7831 13.3691 27.8772 13.5049 27.9355 13.9385C27.9977 14.401 28 15.0289 28 16V24H12V16C12 15.0289 12.0023 14.401 12.0645 13.9385C12.1228 13.5049 12.2169 13.3691 12.293 13.293C12.3691 13.2169 12.5049 13.1228 12.9385 13.0645C13.401 13.0023 14.0289 13 15 13Z" stroke="#FFCB66" stroke-width="2"/>
<path d="M28.333 24C29.2535 24 30 24.7465 30 25.667C29.9998 26.9554 28.9554 27.9998 27.667 28H12.333C11.0446 27.9998 10.0002 26.9554 10 25.667C10 24.7465 10.7465 24 11.667 24H28.333Z" stroke="#FFCB66" stroke-width="2"/>
</svg>
