<svg width="24" height="24" viewBox="0 0 24 24" fill="none" xmlns="http://www.w3.org/2000/svg">
<path d="M22.0575 6.9449C21.938 6.50093 21.704 6.09614 21.3789 5.77103C21.0538 5.44592 20.649 5.2119 20.205 5.0924C18.57 4.6499 12 4.6499 12 4.6499C12 4.6499 5.43002 4.6499 3.79501 5.0924C3.35104 5.2119 2.94625 5.44592 2.62114 5.77103C2.29603 6.09614 2.06202 6.50093 1.94251 6.9449C1.63722 8.61235 1.48907 10.3048 1.50002 11.9999C1.48907 13.695 1.63722 15.3875 1.94251 17.0549C2.06202 17.4989 2.29603 17.9037 2.62114 18.2288C2.94625 18.5539 3.35104 18.7879 3.79501 18.9074C5.43002 19.3499 12 19.3499 12 19.3499C12 19.3499 18.57 19.3499 20.205 18.9074C20.649 18.7879 21.0538 18.5539 21.3789 18.2288C21.704 17.9037 21.938 17.4989 22.0575 17.0549C22.3628 15.3875 22.511 13.695 22.5 11.9999C22.511 10.3048 22.3628 8.61235 22.0575 6.9449ZM9.90001 15.1499V8.8499L15.3525 11.9999L9.90001 15.1499Z" fill="url(#paint0_linear_1_719)"/>
<defs>
<linearGradient id="paint0_linear_1_719" x1="12" y1="4.6499" x2="12" y2="19.3499" gradientUnits="userSpaceOnUse">
<stop stop-color="#6364FF"/>
<stop offset="1" stop-color="#563ACC"/>
</linearGradient>
</defs>
</svg>
